<svg width="45" height="44" viewBox="0 0 45 44" fill="none" xmlns="http://www.w3.org/2000/svg">
<path d="M22.5 0C10.0687 0 0 10.094 0 22.5565C0 32.5377 6.44062 40.9682 15.3844 43.9569C16.5094 44.1543 16.9312 43.4776 16.9312 42.8855C16.9312 42.3498 16.9031 40.5734 16.9031 38.6843C11.25 39.7276 9.7875 37.3028 9.3375 36.0339C9.08437 35.3855 7.9875 33.3836 7.03125 32.8478C6.24375 32.4249 5.11875 31.3817 7.00313 31.3535C8.775 31.3253 10.0406 32.9888 10.4625 33.6655C12.4875 37.0772 15.7219 36.1185 17.0156 35.5264C17.2125 34.0603 17.8031 33.0734 18.45 32.5095C13.4437 31.9456 8.2125 30.0001 8.2125 21.3722C8.2125 18.9192 9.08438 16.8892 10.5188 15.3102C10.2938 14.7463 9.50625 12.4343 10.7437 9.33274C10.7437 9.33274 12.6281 8.74063 16.9312 11.6448C18.7312 11.1373 20.6438 10.8835 22.5563 10.8835C24.4688 10.8835 26.3813 11.1373 28.1813 11.6448C32.4844 8.71243 34.3688 9.33274 34.3688 9.33274C35.6063 12.4343 34.8188 14.7463 34.5938 15.3102C36.0281 16.8892 36.9 18.891 36.9 21.3722C36.9 30.0283 31.6406 31.9456 26.6344 32.5095C27.45 33.2144 28.1531 34.5678 28.1531 36.6824C28.1531 39.6994 28.125 42.1242 28.125 42.8855C28.125 43.4776 28.5469 44.1825 29.6719 43.9569C34.1388 42.4456 38.0203 39.5678 40.7701 35.7288C43.5198 31.8897 44.9992 27.2827 45 22.5565C45 10.094 34.9313 0 22.5 0Z" fill="#000745"/>
</svg>
