<svg width="30" height="25" viewBox="0 0 30 25" fill="none" xmlns="http://www.w3.org/2000/svg">
<path d="M1.53718 2.92318L3.41195 1.22672C4.03085 0.667182 4.83217 0.351889 5.66642 0.339659C6.50067 0.327429 7.31089 0.619097 7.94593 1.16026L11.0962 3.84369C11.6429 4.30916 12.03 4.93415 12.2033 5.6309C12.3766 6.32766 12.3273 7.06118 12.0624 7.72849L10.7592 11.01C10.5872 11.4553 11.3731 12.5004 13.4549 13.9394C15.5384 15.379 16.7941 15.7435 17.144 15.4283L19.7588 13.0436C20.2888 12.5601 20.9568 12.2546 21.6691 12.1699C22.3815 12.0852 23.1025 12.2255 23.7311 12.5712L27.3426 14.5588C28.072 14.9601 28.6309 15.6126 28.9156 16.3949C29.2002 17.1772 29.1912 18.0363 28.8902 18.8125L27.9618 21.2069C27.662 21.9798 27.1627 22.6594 26.5145 23.1763C25.8664 23.6933 25.0928 24.029 24.2726 24.1494C20.2301 24.7421 15.4405 23.0848 9.88103 19.2434C4.31106 15.3973 1.038 11.4775 0.112956 7.44601C-0.0732873 6.63359 -0.0394943 5.78619 0.210852 4.99118C0.461198 4.19617 0.919038 3.4823 1.53718 2.92318Z" fill="black"/>
</svg>
