<svg width="164" height="58" viewBox="0 0 164 58" fill="none" xmlns="http://www.w3.org/2000/svg">
<path d="M15.984 40.048C15.12 40.048 14.384 39.76 13.776 39.184C13.2 38.608 12.72 37.856 12.336 36.928C11.952 36 11.68 34.992 11.52 33.904C11.36 32.816 11.28 31.744 11.28 30.688C11.28 29.792 11.328 28.976 11.424 28.24C11.552 27.504 11.696 26.912 11.856 26.464C11.728 26.144 11.552 25.744 11.328 25.264C11.136 24.784 11.04 24.352 11.04 23.968C11.04 23.488 11.2 23.248 11.52 23.248C11.744 23.248 12 23.408 12.288 23.728C14.08 25.968 16.016 27.968 18.096 29.728C20.176 31.488 22.288 32.816 24.432 33.712C25.744 32.496 26.944 31.2 28.032 29.824C29.12 28.416 30.096 27.024 30.96 25.648C31.856 24.24 32.64 22.944 33.312 21.76C33.984 20.544 34.544 19.568 34.992 18.832C35.056 18.64 35.12 18.464 35.184 18.304C35.248 18.112 35.312 17.936 35.376 17.776C34.192 18.768 32.88 19.792 31.44 20.848C30.032 21.904 28.56 22.88 27.024 23.776C25.52 24.672 24.032 25.392 22.56 25.936C21.088 26.48 19.696 26.768 18.384 26.8C17.424 26.8 16.72 26.496 16.272 25.888C15.856 25.28 15.712 24.656 15.84 24.016C16.064 22.672 16.608 21.392 17.472 20.176C18.336 18.928 19.408 17.792 20.688 16.768C20.848 16.672 21.008 16.624 21.168 16.624C21.36 16.624 21.52 16.64 21.648 16.672C21.808 16.736 21.92 16.816 21.984 16.912C22.144 17.072 22.112 17.232 21.888 17.392C21.44 17.744 20.976 18.112 20.496 18.496C20.048 18.848 19.616 19.248 19.2 19.696C18.784 20.176 18.416 20.688 18.096 21.232C17.808 21.776 17.664 22.4 17.664 23.104C17.664 24.16 18.4 24.688 19.872 24.688C21.28 24.688 22.72 24.384 24.192 23.776C25.696 23.168 27.184 22.368 28.656 21.376C30.16 20.384 31.616 19.28 33.024 18.064C34.464 16.848 35.808 15.632 37.056 14.416C37.856 13.296 38.624 12.56 39.36 12.208C40.096 11.824 40.704 11.632 41.184 11.632C41.728 11.632 42.096 11.728 42.288 11.92C42.512 12.08 42.624 12.288 42.624 12.544C42.624 12.768 42.56 12.992 42.432 13.216C42.336 13.408 42.224 13.584 42.096 13.744C41.04 15.12 39.856 16.704 38.544 18.496C37.232 20.256 35.872 22.08 34.464 23.968C33.088 25.792 31.68 27.6 30.24 29.392C28.8 31.152 27.376 32.784 25.968 34.288C27.408 34.8 28.864 35.216 30.336 35.536C31.84 35.888 33.328 36.064 34.8 36.064C37.328 36.064 39.808 35.776 42.24 35.2C44.672 34.624 46.96 33.84 49.104 32.848C51.248 31.824 53.168 30.64 54.864 29.296C56.56 27.952 57.952 26.528 59.04 25.024C60.576 22.944 61.344 20.832 61.344 18.688C61.344 16.64 60.512 14.656 58.848 12.736C57.184 10.816 54.432 9.152 50.592 7.744C48.992 7.136 47.12 6.704 44.976 6.448C42.832 6.192 40.624 6.064 38.352 6.064C36.688 6.064 35.024 6.128 33.36 6.256C31.728 6.352 30.16 6.528 28.656 6.784C25.808 7.232 22.944 7.92 20.064 8.848C17.216 9.776 14.56 10.912 12.096 12.256C9.632 13.6 7.552 15.168 5.856 16.96C4.16 18.752 3.056 20.736 2.544 22.912C2.448 23.328 2.4 23.728 2.4 24.112C2.4 25.424 2.8 26.544 3.6 27.472C4.432 28.368 5.296 28.88 6.192 29.008C6.544 29.072 6.784 29.168 6.912 29.296C6.976 29.424 7.008 29.488 7.008 29.488C7.008 29.648 6.928 29.776 6.768 29.872C6.48 30.16 6.08 30.272 5.568 30.208C4.736 30.048 3.888 29.648 3.024 29.008C2.192 28.368 1.488 27.552 0.912 26.56C0.336 25.536 0.048 24.416 0.048 23.2C0.048 22.752 0.096 22.288 0.192 21.808C0.608 19.856 1.472 18.08 2.784 16.48C4.128 14.848 5.776 13.392 7.728 12.112C9.712 10.832 11.888 9.728 14.256 8.8C16.656 7.84 19.136 7.056 21.696 6.448C24.288 5.808 26.832 5.344 29.328 5.056C30.448 4.896 31.6 4.8 32.784 4.768C33.968 4.704 35.168 4.672 36.384 4.672C38.848 4.672 41.328 4.816 43.824 5.104C46.352 5.392 48.704 5.84 50.88 6.448C55.84 7.824 59.392 9.584 61.536 11.728C63.712 13.872 64.8 16.16 64.8 18.592C64.8 19.68 64.608 20.768 64.224 21.856C63.84 22.944 63.28 24.016 62.544 25.072C61.392 26.736 59.856 28.32 57.936 29.824C56.048 31.328 53.872 32.672 51.408 33.856C48.976 35.008 46.352 35.904 43.536 36.544C40.752 37.216 37.888 37.552 34.944 37.552C33.184 37.552 31.424 37.376 29.664 37.024C27.936 36.704 26.224 36.256 24.528 35.68C23.888 36.256 23.072 36.88 22.08 37.552C21.12 38.224 20.096 38.8 19.008 39.28C17.952 39.792 16.944 40.048 15.984 40.048ZM17.088 37.84C17.184 37.872 17.328 37.888 17.52 37.888C18.32 37.888 19.2 37.584 20.16 36.976C21.12 36.4 22.032 35.76 22.896 35.056C21.136 34.32 19.424 33.408 17.76 32.32C16.096 31.2 14.512 29.856 13.008 28.288C12.976 29.088 13.008 30 13.104 31.024C13.2 32.048 13.392 33.04 13.68 34C13.968 34.96 14.384 35.792 14.928 36.496C15.504 37.2 16.224 37.648 17.088 37.84ZM72.564 34.624C71.828 34.624 71.124 34.544 70.452 34.384C69.78 34.224 69.172 33.984 68.628 33.664C67.22 32.768 66.516 31.584 66.516 30.112C66.516 28.96 66.9 27.792 67.668 26.608C68.468 25.392 69.492 24.24 70.74 23.152C71.988 22.064 73.3 21.168 74.676 20.464C75.508 20.016 76.34 19.696 77.172 19.504C78.004 19.312 78.74 19.216 79.38 19.216C80.5 19.216 81.236 19.44 81.588 19.888C81.972 20.304 82.164 20.8 82.164 21.376C82.164 21.984 81.972 22.576 81.588 23.152C81.204 23.696 80.66 24.24 79.956 24.784C78.74 25.776 77.076 26.656 74.964 27.424C72.884 28.192 70.74 28.736 68.532 29.056C68.212 29.696 68.052 30.288 68.052 30.832C68.116 31.728 68.58 32.368 69.444 32.752C70.34 33.104 71.332 33.28 72.42 33.28C72.804 33.28 73.172 33.264 73.524 33.232C73.876 33.2 74.212 33.152 74.532 33.088C76.132 32.768 77.764 32.192 79.428 31.36C81.124 30.528 82.756 29.568 84.324 28.48C85.892 27.392 87.3 26.304 88.548 25.216C88.74 25.152 88.868 25.12 88.932 25.12C89.156 25.12 89.268 25.232 89.268 25.456C89.268 25.616 89.204 25.776 89.076 25.936C88.852 26.32 88.388 26.816 87.684 27.424C87.012 28.032 86.244 28.656 85.38 29.296C84.516 29.904 83.668 30.496 82.836 31.072C82.036 31.616 81.364 32.032 80.82 32.32C79.668 32.96 78.356 33.504 76.884 33.952C75.412 34.4 73.972 34.624 72.564 34.624ZM69.348 27.712C70.372 27.456 71.556 27.136 72.9 26.752C74.244 26.336 75.524 25.856 76.74 25.312C77.956 24.736 78.868 24.112 79.476 23.44C79.732 23.184 79.908 22.928 80.004 22.672C80.1 22.384 80.148 22.144 80.148 21.952C80.148 21.792 80.084 21.648 79.956 21.52C79.86 21.392 79.54 21.328 78.996 21.328C78.228 21.328 77.236 21.648 76.02 22.288C74.804 22.896 73.588 23.696 72.372 24.688C71.188 25.648 70.18 26.656 69.348 27.712ZM92.8609 34.624C92.1249 34.624 91.4209 34.544 90.7489 34.384C90.0769 34.224 89.4689 33.984 88.9249 33.664C87.5169 32.768 86.8129 31.584 86.8129 30.112C86.8129 28.96 87.1969 27.792 87.9649 26.608C88.7649 25.392 89.7889 24.24 91.0369 23.152C92.2849 22.064 93.5969 21.168 94.9729 20.464C95.8369 20.016 96.6849 19.696 97.5169 19.504C98.3489 19.312 99.1009 19.216 99.7729 19.216C100.509 19.216 101.165 19.328 101.741 19.552C102.317 19.776 102.637 20.112 102.701 20.56C102.829 21.488 102.573 22.352 101.933 23.152C101.293 23.92 100.525 24.608 99.6289 25.216C98.7329 25.824 97.9489 26.32 97.2769 26.704C97.1809 26.736 97.0849 26.784 96.9889 26.848C96.9249 26.88 96.8609 26.896 96.7969 26.896C96.5729 26.896 96.4449 26.832 96.4129 26.704C96.3809 26.544 96.3809 26.4 96.4129 26.272C96.5409 25.856 96.9409 25.472 97.6129 25.12C98.0289 24.896 98.4609 24.608 98.9089 24.256C99.3569 23.872 99.7409 23.472 100.061 23.056C100.381 22.608 100.541 22.24 100.541 21.952C100.541 21.792 100.461 21.648 100.301 21.52C100.141 21.392 99.7889 21.328 99.2449 21.328C98.6049 21.328 97.8209 21.536 96.8929 21.952C95.9649 22.368 95.0049 22.928 94.0129 23.632C93.0209 24.304 92.0929 25.056 91.2289 25.888C90.3969 26.72 89.7089 27.552 89.1649 28.384C88.6209 29.216 88.3489 29.984 88.3489 30.688C88.3489 31.616 88.7969 32.288 89.6929 32.704C90.5889 33.088 91.5969 33.28 92.7169 33.28C93.1009 33.28 93.4689 33.264 93.8209 33.232C94.1729 33.2 94.5089 33.152 94.8289 33.088C96.4289 32.768 98.0609 32.192 99.7249 31.36C101.421 30.528 103.053 29.568 104.621 28.48C106.189 27.392 107.597 26.304 108.845 25.216C109.037 25.152 109.165 25.12 109.229 25.12C109.453 25.12 109.565 25.232 109.565 25.456C109.565 25.616 109.501 25.776 109.373 25.936C109.149 26.32 108.685 26.816 107.981 27.424C107.309 28.032 106.541 28.656 105.677 29.296C104.813 29.904 103.965 30.496 103.133 31.072C102.333 31.616 101.661 32.032 101.117 32.32C99.9649 32.96 98.6529 33.504 97.1809 33.952C95.7089 34.4 94.2689 34.624 92.8609 34.624ZM120.598 34.816C119.19 34.816 117.99 34.448 116.998 33.712C116.038 32.944 115.318 31.984 114.838 30.832C114.358 29.648 114.102 28.432 114.07 27.184C113.014 28.08 112.022 28.992 111.094 29.92C110.198 30.816 109.382 31.728 108.646 32.656L108.742 32.992C108.806 33.088 108.838 33.184 108.838 33.28C108.838 33.376 108.838 33.472 108.838 33.568C108.838 33.856 108.758 34.096 108.598 34.288C108.438 34.48 108.23 34.624 107.974 34.72C107.782 34.784 107.606 34.816 107.446 34.816C107.222 34.816 106.982 34.752 106.726 34.624C106.502 34.496 106.342 34.32 106.246 34.096C106.054 33.648 105.958 33.152 105.958 32.608C105.958 31.424 106.278 30.112 106.918 28.672C107.558 27.2 108.246 25.776 108.982 24.4C108.598 24.4 108.406 24.272 108.406 24.016C108.406 23.792 108.55 23.568 108.838 23.344C109.51 22.928 109.91 22.592 110.038 22.336C110.614 21.184 111.366 19.856 112.294 18.352C113.222 16.816 114.294 15.216 115.51 13.552C116.758 11.888 118.07 10.272 119.446 8.704C120.854 7.136 122.31 5.712 123.814 4.432C125.318 3.152 126.822 2.128 128.326 1.36C129.83 0.591998 131.27 0.207997 132.646 0.207997C133.766 0.207997 134.55 0.463998 134.998 0.975999C135.478 1.456 135.718 2.032 135.718 2.704C135.718 3.184 135.622 3.68 135.43 4.192C135.27 4.672 135.062 5.12 134.806 5.536C133.942 6.944 132.806 8.352 131.398 9.76C130.022 11.168 128.486 12.528 126.79 13.84C125.094 15.152 123.35 16.384 121.558 17.536C119.798 18.656 118.102 19.68 116.47 20.608C114.87 21.504 113.446 22.24 112.198 22.816C111.622 23.904 111.03 25.088 110.422 26.368C109.814 27.648 109.334 28.848 108.982 29.968C109.622 29.328 110.39 28.608 111.286 27.808C112.214 27.008 113.19 26.192 114.214 25.36C114.278 25.04 114.342 24.736 114.406 24.448C114.47 24.128 114.566 23.84 114.694 23.584C115.078 22.496 115.574 21.952 116.182 21.952C116.438 21.952 116.662 22.048 116.854 22.24C117.046 22.432 117.206 22.656 117.334 22.912C118.71 21.888 120.07 20.96 121.414 20.128C122.758 19.264 123.99 18.576 125.11 18.064C126.262 17.552 127.19 17.296 127.894 17.296C128.918 17.296 129.43 17.712 129.43 18.544C129.43 18.96 129.254 19.344 128.902 19.696C128.55 20.048 128.054 20.272 127.414 20.368C125.686 20.624 123.942 21.152 122.182 21.952C120.454 22.72 118.774 23.664 117.142 24.784C116.758 25.776 116.566 26.848 116.566 28C116.566 29.376 116.902 30.592 117.574 31.648C118.246 32.672 119.366 33.184 120.934 33.184C121.99 33.184 123.126 32.976 124.342 32.56C125.558 32.112 126.774 31.552 127.99 30.88C129.238 30.208 130.406 29.488 131.494 28.72C132.614 27.952 133.59 27.232 134.422 26.56C134.582 26.4 134.742 26.272 134.902 26.176C135.094 26.048 135.254 25.92 135.382 25.792C135.606 25.632 135.926 25.376 136.342 25.024C136.438 24.992 136.55 24.976 136.678 24.976C136.934 24.976 137.062 25.104 137.062 25.36C137.062 25.488 136.982 25.664 136.822 25.888C136.63 26.112 136.198 26.528 135.526 27.136C134.854 27.744 134.022 28.432 133.03 29.2C132.07 29.936 131.03 30.672 129.91 31.408C128.79 32.144 127.67 32.784 126.55 33.328C125.878 33.648 124.998 33.968 123.91 34.288C122.822 34.64 121.718 34.816 120.598 34.816ZM113.11 20.944C115.51 19.6 117.974 18.144 120.502 16.576C123.03 15.008 125.398 13.28 127.606 11.392C129.846 9.472 131.67 7.328 133.078 4.96C133.238 4.672 133.398 4.368 133.558 4.048C133.75 3.696 133.91 3.36 134.038 3.04C134.07 2.912 134.086 2.8 134.086 2.704C134.118 2.608 134.134 2.528 134.134 2.464C134.134 2.048 133.878 1.84 133.366 1.84C132.758 1.84 131.958 2.064 130.966 2.512C130.006 2.96 128.966 3.552 127.846 4.288C126.758 4.992 125.702 5.76 124.678 6.592C123.686 7.424 122.854 8.208 122.182 8.944C121.158 10.096 120.038 11.408 118.822 12.88C117.638 14.32 116.534 15.744 115.51 17.152C114.486 18.56 113.686 19.824 113.11 20.944ZM120.565 57.76C119.605 57.76 118.693 57.6 117.829 57.28C116.933 56.96 116.197 56.496 115.621 55.888C115.045 55.28 114.757 54.544 114.757 53.68C114.757 51.76 115.381 50.032 116.629 48.496C117.877 46.992 119.381 45.664 121.141 44.512C122.005 43.904 122.917 43.344 123.877 42.832C124.805 42.32 125.733 41.84 126.661 41.392C127.589 40.944 128.469 40.528 129.301 40.144C130.133 39.792 130.901 39.456 131.605 39.136C132.341 38.816 133.269 38.448 134.389 38.032C135.509 37.616 136.709 37.184 137.989 36.736C139.269 36.32 140.533 35.904 141.781 35.488C143.061 35.104 144.213 34.768 145.237 34.48C145.717 33.552 146.133 32.48 146.485 31.264C146.869 30.016 147.061 28.928 147.061 28C147.061 27.296 146.949 26.784 146.725 26.464C146.117 27.072 145.573 27.632 145.093 28.144C144.645 28.624 144.181 29.104 143.701 29.584C143.221 30.032 142.629 30.56 141.925 31.168C140.933 32.032 139.909 32.8 138.853 33.472C137.797 34.112 136.805 34.432 135.877 34.432C134.949 34.432 134.197 34.048 133.621 33.28C133.269 32.8 133.093 32.224 133.093 31.552C133.093 30.496 133.477 29.376 134.245 28.192C135.013 26.976 135.941 25.84 137.029 24.784C137.093 24.688 137.253 24.496 137.509 24.208C137.765 23.92 138.037 23.616 138.325 23.296C138.613 22.976 138.837 22.752 138.997 22.624C139.029 22.464 139.093 22.272 139.189 22.048C139.317 21.792 139.493 21.552 139.717 21.328C139.909 21.104 140.133 20.912 140.389 20.752C140.677 20.56 140.949 20.464 141.205 20.464C141.397 20.464 141.557 20.512 141.685 20.608C141.973 20.736 142.229 20.912 142.453 21.136C142.709 21.328 142.837 21.552 142.837 21.808C142.837 22.096 142.677 22.4 142.357 22.72L141.349 23.68C140.517 24.48 139.605 25.408 138.613 26.464C137.621 27.488 136.757 28.48 136.021 29.44C135.317 30.4 134.933 31.168 134.869 31.744C134.837 31.84 134.821 31.936 134.821 32.032C134.821 32.128 134.821 32.224 134.821 32.32C134.821 32.768 134.901 33.072 135.061 33.232C135.253 33.392 135.445 33.472 135.637 33.472C136.117 33.472 136.677 33.28 137.317 32.896C137.989 32.512 138.613 32.096 139.189 31.648C139.797 31.168 140.229 30.816 140.485 30.592C141.413 29.76 142.325 28.928 143.221 28.096C144.117 27.232 144.997 26.4 145.861 25.6C145.861 25.312 146.005 25.056 146.293 24.832C146.581 24.576 147.029 24.448 147.637 24.448C148.341 24.448 148.869 24.752 149.221 25.36C149.605 25.968 149.797 26.736 149.797 27.664C149.797 28.4 149.685 29.248 149.461 30.208C149.237 31.136 148.885 32.144 148.405 33.232C150.645 32.24 152.725 31.2 154.645 30.112C156.565 29.024 158.373 27.696 160.069 26.128C160.261 25.968 160.485 25.744 160.741 25.456C161.029 25.168 161.301 24.896 161.557 24.64C161.877 24.352 162.165 24.112 162.421 23.92C162.709 23.728 162.901 23.648 162.997 23.68C163.157 23.744 163.237 23.872 163.237 24.064C163.237 24.192 163.157 24.384 162.997 24.64C162.869 24.864 162.661 25.136 162.373 25.456C162.085 25.776 161.717 26.176 161.269 26.656C159.509 28.416 157.541 29.952 155.365 31.264C153.189 32.544 150.581 33.792 147.541 35.008C145.973 38.08 144.117 40.992 141.973 43.744C139.861 46.496 137.589 48.912 135.157 50.992C132.757 53.104 130.309 54.752 127.813 55.936C125.317 57.152 122.901 57.76 120.565 57.76ZM119.701 56.224C121.045 56.224 122.613 55.888 124.405 55.216C126.197 54.576 128.021 53.68 129.877 52.528C131.765 51.376 133.477 50.032 135.013 48.496C135.685 47.824 136.485 46.944 137.413 45.856C138.341 44.768 139.269 43.616 140.197 42.4C141.157 41.216 142.021 40.064 142.789 38.944C143.589 37.824 144.181 36.896 144.565 36.16C142.197 36.736 139.717 37.504 137.125 38.464C134.533 39.456 132.005 40.56 129.541 41.776C127.109 43.024 124.901 44.336 122.917 45.712C120.933 47.088 119.365 48.464 118.213 49.84C117.029 51.216 116.437 52.544 116.437 53.824C116.437 54.624 116.741 55.216 117.349 55.6C117.925 56.016 118.709 56.224 119.701 56.224Z" fill="#000745"/>
</svg>
