<svg width="44" height="44" viewBox="0 0 44 44" fill="none" xmlns="http://www.w3.org/2000/svg">
<path d="M33.748 7.612C33.2259 7.612 32.7154 7.76683 32.2813 8.05692C31.8471 8.34701 31.5088 8.75932 31.309 9.24172C31.1091 9.72411 31.0569 10.2549 31.1587 10.767C31.2606 11.2791 31.512 11.7496 31.8812 12.1188C32.2505 12.488 32.7209 12.7394 33.233 12.8413C33.7451 12.9431 34.2759 12.8909 34.7583 12.691C35.2407 12.4912 35.653 12.1529 35.9431 11.7187C36.2332 11.2846 36.388 10.7741 36.388 10.252C36.388 9.55183 36.1099 8.88033 35.6148 8.38524C35.1197 7.89014 34.4482 7.612 33.748 7.612ZM43.868 12.936C43.8252 11.1107 43.4833 9.30469 42.856 7.59C42.2966 6.12289 41.426 4.79441 40.304 3.696C39.2146 2.56834 37.883 1.70319 36.41 1.166C34.6998 0.519554 32.8919 0.169862 31.064 0.132C28.732 -1.22935e-07 27.984 0 22 0C16.016 0 15.268 -1.22935e-07 12.936 0.132C11.1081 0.169862 9.30015 0.519554 7.59 1.166C6.11969 1.70863 4.78925 2.57303 3.696 3.696C2.56834 4.78539 1.70319 6.11697 1.166 7.59C0.519554 9.30015 0.169862 11.1081 0.132 12.936C-1.22935e-07 15.268 0 16.016 0 22C0 27.984 -1.22935e-07 28.732 0.132 31.064C0.169862 32.8919 0.519554 34.6998 1.166 36.41C1.70319 37.883 2.56834 39.2146 3.696 40.304C4.78925 41.427 6.11969 42.2914 7.59 42.834C9.30015 43.4804 11.1081 43.8301 12.936 43.868C15.268 44 16.016 44 22 44C27.984 44 28.732 44 31.064 43.868C32.8919 43.8301 34.6998 43.4804 36.41 42.834C37.883 42.2968 39.2146 41.4317 40.304 40.304C41.4309 39.2097 42.3023 37.88 42.856 36.41C43.4833 34.6953 43.8252 32.8893 43.868 31.064C43.868 28.732 44 27.984 44 22C44 16.016 44 15.268 43.868 12.936ZM39.908 30.8C39.892 32.1965 39.6391 33.5801 39.16 34.892C38.8087 35.8494 38.2445 36.7145 37.51 37.422C36.7964 38.1491 35.9331 38.7122 34.98 39.072C33.6681 39.5511 32.2845 39.804 30.888 39.82C28.688 39.93 27.874 39.952 22.088 39.952C16.302 39.952 15.488 39.952 13.288 39.82C11.838 39.8472 10.3941 39.6239 9.02 39.16C8.10872 38.7818 7.28498 38.2201 6.6 37.51C5.86979 36.8032 5.31266 35.9374 4.972 34.98C4.43488 33.6493 4.13698 32.2343 4.092 30.8C4.092 28.6 3.96 27.786 3.96 22C3.96 16.214 3.96 15.4 4.092 13.2C4.10186 11.7723 4.36249 10.3575 4.862 9.02C5.2493 8.0914 5.84378 7.26365 6.6 6.6C7.26839 5.84357 8.09443 5.24281 9.02 4.84C10.361 4.3561 11.7744 4.10318 13.2 4.092C15.4 4.092 16.214 3.96 22 3.96C27.786 3.96 28.6 3.96 30.8 4.092C32.1965 4.10802 33.5801 4.36094 34.892 4.84C35.8917 5.21104 36.789 5.81426 37.51 6.6C38.2309 7.27579 38.7943 8.10201 39.16 9.02C39.649 10.3597 39.902 11.7739 39.908 13.2C40.018 15.4 40.04 16.214 40.04 22C40.04 27.786 40.018 28.6 39.908 30.8ZM22 10.714C19.7688 10.7183 17.5889 11.384 15.7358 12.6267C13.8828 13.8695 12.4396 15.6336 11.5888 17.6963C10.738 19.7589 10.5176 22.0274 10.9555 24.2152C11.3935 26.4031 12.4701 28.412 14.0494 29.9882C15.6286 31.5643 17.6396 32.637 19.8283 33.0707C22.017 33.5044 24.2851 33.2796 26.346 32.4248C28.407 31.5699 30.1683 30.1234 31.4075 28.2679C32.6466 26.4124 33.308 24.2312 33.308 22C33.3109 20.5152 33.0202 19.0445 32.4527 17.6725C31.8852 16.3005 31.052 15.0542 30.0011 14.0053C28.9502 12.9564 27.7023 12.1257 26.3292 11.5608C24.956 10.996 23.4848 10.7082 22 10.714ZM22 29.326C20.5511 29.326 19.1346 28.8963 17.9299 28.0913C16.7251 27.2864 15.7861 26.1422 15.2317 24.8035C14.6772 23.4649 14.5321 21.9919 14.8148 20.5708C15.0974 19.1497 15.7952 17.8443 16.8197 16.8197C17.8443 15.7952 19.1497 15.0974 20.5708 14.8148C21.9919 14.5321 23.4649 14.6772 24.8035 15.2317C26.1422 15.7861 27.2864 16.7251 28.0913 17.9299C28.8963 19.1346 29.326 20.5511 29.326 22C29.326 22.9621 29.1365 23.9147 28.7683 24.8035C28.4002 25.6924 27.8605 26.5 27.1803 27.1803C26.5 27.8605 25.6924 28.4002 24.8035 28.7683C23.9147 29.1365 22.9621 29.326 22 29.326Z" fill="#000745"/>
</svg>
