<svg width="44" height="44" viewBox="0 0 44 44" fill="none" xmlns="http://www.w3.org/2000/svg">
<path d="M37.5879 6.40211C35.5608 4.36475 33.1463 2.74939 30.4852 1.65024C27.8241 0.551085 24.9697 -0.00985622 22.0884 0.000131053C10.0161 0.000131053 0.176885 9.7901 0.176885 21.8021C0.176885 25.6521 1.19397 29.392 3.09548 32.692L0 44L11.608 40.964C14.8141 42.702 18.4181 43.626 22.0884 43.626C34.1608 43.626 44 33.836 44 21.8241C44 15.9941 41.7226 10.5161 37.5879 6.40211ZM22.0884 39.93C18.8161 39.93 15.61 39.05 12.802 37.4L12.1387 37.004L5.2402 38.808L7.07538 32.12L6.63317 31.438C4.81512 28.5494 3.84976 25.2104 3.84724 21.8021C3.84724 11.8141 12.0281 3.67412 22.0663 3.67412C26.9306 3.67412 31.5075 5.56612 34.9347 8.99811C36.6316 10.6788 37.9764 12.678 38.8911 14.8796C39.8058 17.0813 40.2722 19.4417 40.2633 21.8241C40.3075 31.812 32.1266 39.93 22.0884 39.93ZM32.0824 26.3781C31.5296 26.1141 28.8322 24.7941 28.3457 24.5961C27.8372 24.4201 27.4834 24.3321 27.1075 24.8601C26.7317 25.4101 25.6925 26.6421 25.3829 26.9941C25.0734 27.3681 24.7417 27.4121 24.1889 27.1261C23.6362 26.8621 21.8673 26.2681 19.7889 24.4201C18.1528 22.9681 17.0693 21.1861 16.7377 20.6361C16.4281 20.0861 16.6935 19.8001 16.9809 19.5141C17.2241 19.2721 17.5337 18.8761 17.799 18.5681C18.0643 18.2601 18.1749 18.0181 18.3518 17.6661C18.5286 17.2921 18.4402 16.9841 18.3075 16.7201C18.1749 16.4561 17.0693 13.7721 16.6271 12.6721C16.1849 11.6161 15.7206 11.7481 15.3889 11.7261H14.3276C13.9518 11.7261 13.3769 11.8581 12.8683 12.4081C12.3819 12.9581 10.9668 14.2781 10.9668 16.9621C10.9668 19.6461 12.9347 22.2421 13.2 22.5941C13.4653 22.9681 17.0693 28.468 22.5528 30.822C23.8573 31.394 24.8744 31.724 25.6703 31.966C26.9749 32.384 28.1688 32.318 29.1196 32.186C30.1809 32.032 32.3698 30.866 32.8121 29.59C33.2764 28.314 33.2764 27.2361 33.1216 26.9941C32.9668 26.7521 32.6352 26.6421 32.0824 26.3781Z" fill="#000745"/>
</svg>
